<svg width="101" height="102" viewBox="0 0 101 102" fill="none" xmlns="http://www.w3.org/2000/svg">
<path d="M100.43 37.7798L98.9302 44.7798L91.8802 43.2698C91.2102 43.1298 90.5502 43.5498 90.4002 44.2298L89.3602 49.0998C89.2202 49.7698 89.6402 50.4298 90.3202 50.5798L97.3702 52.0898L94.2502 66.6298L86.9002 65.0498C86.2302 64.9098 85.5702 65.3298 85.4202 66.0098L78.8202 96.7798L38.7202 88.1798C35.3602 87.4598 33.2202 84.1498 33.9402 80.7898L45.6802 26.0498C46.4002 22.6898 49.7102 20.5498 53.0702 21.2698L95.6502 30.3998C99.0102 31.1198 101.15 34.4298 100.43 37.7898V37.7798ZM50.3502 42.1898C51.0802 41.9898 51.6902 41.5998 52.1702 41.0398C52.6502 40.4698 52.9902 39.7498 53.1802 38.8598C53.3702 37.9798 53.3602 37.1898 53.1502 36.4798C52.9402 35.7698 52.5602 35.1798 51.9902 34.6998C51.4202 34.2198 50.6902 33.8898 49.7802 33.6898L48.0002 33.3098C47.3302 33.1698 46.6702 33.5898 46.5202 34.2698L45.2202 40.3498C45.0802 41.0198 45.5002 41.6798 46.1802 41.8298L47.8302 42.1798C48.7702 42.3798 49.6102 42.3798 50.3502 42.1798V42.1898Z" fill="#7F9ECB"/>
<path d="M35.4999 0.139894L78.0799 9.26989C81.4399 9.98989 83.5799 13.2999 82.8599 16.6599L71.1199 71.3999C70.3999 74.7599 67.0899 76.8999 63.7299 76.1799L21.1499 67.0499C17.7899 66.3299 15.6499 63.0199 16.3699 59.6599L28.1099 4.91989C28.8299 1.55989 32.1399 -0.580106 35.4999 0.139894ZM50.3499 42.1899C51.0799 41.9899 51.6899 41.5999 52.1699 41.0399C52.6499 40.4699 52.9899 39.7499 53.1799 38.8599C53.3699 37.9799 53.3599 37.1899 53.1499 36.4799C52.9399 35.7699 52.5599 35.1799 51.9899 34.6999C51.4199 34.2199 50.6899 33.8899 49.7799 33.6899L47.9999 33.3099C47.3299 33.1699 46.6699 33.5899 46.5199 34.2699L45.2199 40.3499C45.0799 41.0199 45.4999 41.6799 46.1799 41.8299L47.8299 42.1799C48.7699 42.3799 49.6099 42.3799 50.3499 42.1799V42.1899Z" fill="#A4DEF9"/>
<path d="M94.4001 101.2C93.9201 101.2 93.5001 101.15 93.2401 101.12C77.4901 99.1601 18.6301 60.7101 4.65007 47.5801C0.970069 44.1301 -0.0499333 42.3501 0.890067 41.0101C1.42007 40.2601 2.82007 38.2601 18.9701 46.4401L19.1801 46.5401L18.6501 49.0201L17.8501 48.6601C12.4601 45.9301 6.06007 42.5301 3.47007 42.5601C2.29007 42.5701 4.65007 44.3001 6.35007 45.7701C19.9401 57.4601 76.8701 97.0801 92.3201 98.8401C92.8901 98.9101 94.4801 99.1801 94.7101 98.7001C95.6901 96.6501 87.7001 91.6401 81.1101 86.9601L80.9501 86.8501L81.5201 84.2101L82.5501 84.9301C82.5501 84.9301 85.6801 86.8601 89.6101 90.1001C97.1401 96.3101 97.6901 98.4201 97.1601 99.7801C96.7001 100.96 95.4301 101.2 94.4001 101.2Z" fill="#FFDE8D"/>
<path d="M95.97 94.0698C95.53 94.0698 95.12 94.0198 94.89 93.9898C85.13 92.7798 60.26 77.7598 50.01 71.3598C31.61 59.8598 13.37 46.9298 6.64998 40.6198C3.34998 37.5198 2.27998 35.8498 2.96998 34.8598C3.54998 34.0398 5.08998 33.7098 12.47 36.8598C16.41 38.5398 20.23 40.4699 20.27 40.4899L20.46 40.5799L20.18 41.8698L19.7 41.5998C11.2 37.2998 5.02998 35.1499 4.00998 35.5799C4.03998 35.8199 4.37998 36.7999 7.48998 39.7199C20.99 52.3899 79.95 90.8998 95.03 92.7698C96.49 92.9498 96.94 92.7098 96.98 92.6098C97.53 91.1798 90.26 84.9599 82.59 79.5098L82.52 79.4598L82.8 78.1298L83.31 78.4898C87.22 81.2698 99.33 89.9999 98.14 93.0499C97.81 93.8899 96.81 94.0698 95.96 94.0698H95.97Z" fill="#F2B152"/>
</svg>
